# xmcd
# 
# Track frame offsets:
#     150
#     12429
#     26815
#     44619
#     57491
#     69359
#     80985
#     93477
#     107886
#     121664
#     135988
#     149198
#     164850
#     181081
#     197801
#     232738
#     261085
#     274986
#     289842
# 
# Disc length: 4326
# 
# Revision: 6
# Processed by: cddbd v1.5.2PL0 Copyright (c) Steve Scherf et al.
# Submitted via: fre:ac v1.0.31
# 
DISCID=2510e413
DTITLE=Various Artist - Spiegel Jazz Edition Vol.10 - Legends
DYEAR=1998
DGENRE=Jazz
TTITLE0=King Oliver - New Orleans Shout
TTITLE1=Jelly Roll Morton - I thought I heard Buddy Bolden Say
TTITLE2=Louis Armstrong - Ain't Misbehavin'
TTITLE3=Bix Beiderbecke - Lonley Melody
TTITLE4=Fats Waller - Honeysuckle Rose
TTITLE5=Count Basie - Roseland Shuffle
TTITLE6=Benny Goodman - Avalon
TTITLE7=Artie Shaw - Any old Time
TTITLE8=Coleman Hawkins - Body and Soul
TTITLE9=Duke Ellington - Cotton Tail
TTITLE10=Johnny Hodges - Thats's the Blues, Old Man
TTITLE11=Ella Fitzgerald and Oscar Peterson - Mean to me
TTITLE12=Art Tatum and Roy Eldridge - You took Advantage fo me
TTITLE13=Woody Herman - Early Autumn
TTITLE14=Dizzy Gillespie and Charlie Parker - Salt Peanuts
TTITLE15=Miles Davis - Well you needn't
TTITLE16=Sonny Rollins - St. Thomas
TTITLE17=Gerry Mulligan - Lullaby of the Leaves
TTITLE18=Dave Brubeck - The Way you look Tonight
EXTD=
EXTT0=
EXTT1=
EXTT2=
EXTT3=
EXTT4=
EXTT5=
EXTT6=
EXTT7=
EXTT8=
EXTT9=
EXTT10=
EXTT11=
EXTT12=
EXTT13=
EXTT14=
EXTT15=
EXTT16=
EXTT17=
EXTT18=
PLAYORDER=
